<svg width="191" height="127" viewBox="0 0 191 127" fill="none" xmlns="http://www.w3.org/2000/svg">
<path d="M118 22.0002C87.2931 -17.6323 32.9203 8.55521 33.9996 48.0002C-1.99973 53 -18.4999 117 40.4996 125.5H154.5C199.256 118.224 200.416 55.2984 158.5 48.0002C151.467 25.9058 141.935 20.6421 118 22.0002Z" fill="#192131" stroke="#4898B7" stroke-width="3"/>
<g filter="url(#filter0_d_703_42)">
<path d="M126 75.5002C116 57.5001 89.4999 45 73.9997 77C55.5 77 51.1588 97.0332 67.9996 101.5H129C147.5 99.5 143.5 79 126 75.5002Z" fill="#EDF5F9"/>
<path d="M126 75.5002C116 57.5001 89.4999 45 73.9997 77C55.5 77 51.1588 97.0332 67.9996 101.5H129C147.5 99.5 143.5 79 126 75.5002Z" stroke="#00030D" stroke-width="2"/>
</g>
<defs>
<filter id="filter0_d_703_42" x="52.4658" y="52.2793" width="101.661" height="62.2207" filterUnits="userSpaceOnUse" color-interpolation-filters="sRGB">
<feFlood flood-opacity="0" result="BackgroundImageFix"/>
<feColorMatrix in="SourceAlpha" type="matrix" values="0 0 0 0 0 0 0 0 0 0 0 0 0 0 0 0 0 0 127 0" result="hardAlpha"/>
<feOffset dx="4" dy="4"/>
<feGaussianBlur stdDeviation="4"/>
<feComposite in2="hardAlpha" operator="out"/>
<feColorMatrix type="matrix" values="0 0 0 0 0 0 0 0 0 0 0 0 0 0 0 0 0 0 0.25 0"/>
<feBlend mode="normal" in2="BackgroundImageFix" result="effect1_dropShadow_703_42"/>
<feBlend mode="normal" in="SourceGraphic" in2="effect1_dropShadow_703_42" result="shape"/>
</filter>
</defs>
</svg>