<svg width="189" height="188" viewBox="0 0 189 188" fill="none" xmlns="http://www.w3.org/2000/svg">
<path fill-rule="evenodd" clip-rule="evenodd" d="M0.5 92.4998C0.5 143.5 41.5 187.5 94 187.5C153.5 185.5 189 142.5 189 92.4998C187 36.9999 144.5 -2.00012 94 0.999775C47 0.999775 3 30.9998 0.5 92.4998ZM94 169.5C52 169.5 18 135.5 18 92.4998C18 47.4998 56 16.9998 94 16.9998C140 16.9998 171.5 52.4998 171.5 92.4998C171.5 139.5 132.5 172 94 169.5ZM86 95.4998V39.4998C89.5 31.9998 99 30.9998 103 39.4998V88.9998L128 114.5C131 123.5 124 129 115.5 126L86 95.4998Z" fill="#353535"/>
</svg>