<svg width="205" height="206" viewBox="0 0 205 206" fill="none" xmlns="http://www.w3.org/2000/svg">
<path fill-rule="evenodd" clip-rule="evenodd" d="M35.0004 179.5C-14.5 131 -5.99968 66.5 35.0004 26.5001C73.5004 -4.49981 116.5 -5.9999 153.5 14.0001C201.5 43 215 93 197.5 143C164.5 210 87.5004 224 35.0004 179.5ZM94.5 17.5C50 24.5 17.5 54.5 17.5 109.5C21 150.5 56.5 193.867 114 187.5C153.5 184.5 196.494 145 187 88C178.5 44.5 140 12.5 94.5 17.5ZM86.0002 132.5C66.0004 120 64.0004 93.0001 79.0002 79.5003C89.0002 66.5003 114.5 64.5002 128 79.5003C138 90.0001 139 110 131.5 121.5C119.125 138 100.5 139.5 86.0002 132.5ZM53 90.5C49 98.5 36.5 97 36.5 88C45 58.5 60 46 86.0002 37C94.5 37 97.5004 46.5 92 52C73 57.5 60.5 67 53 90.5ZM126.5 166C118 165.5 115 157 122 150.5C137.355 143.495 143.708 136.986 151.5 121C157 116 166 118 166 127.5C157.5 149 141 161.5 126.5 166ZM97.5004 109.5C93.0004 105 94.5004 96.5001 100.5 94.5001C106.5 92.5001 112.5 96.5001 111.5 104C110.5 111.5 103 114 97.5004 109.5Z" fill="#353535"/>
</svg>