<svg width="257" height="171" viewBox="0 0 257 171" fill="none" xmlns="http://www.w3.org/2000/svg">
<path d="M34.5002 56.9999C34.5002 56.9999 32.5001 49 34.5002 36.4999C44.0001 -9.00007 110 -14.5001 120 38.4999V56.9999C111 102.5 49.0001 109.5 34.5002 56.9999Z" fill="#353535"/>
<path fill-rule="evenodd" clip-rule="evenodd" d="M137.5 38.4999V55C146.5 111 219 101.5 222.5 55V38.4999C216 -8.00005 149 -17 137.5 38.4999ZM154.5 55V38.4999C163.5 9.5 197 9.5 205.5 38.4999V55C201 82.5 162 86 154.5 55Z" fill="#353535"/>
<path fill-rule="evenodd" clip-rule="evenodd" d="M0.99992 156.5C-1.49982 128.5 70.9999 91 129 125.5C174.5 97.5 244.5 117.5 257 151.5C256.641 161.797 254.67 166.277 246 170.5H11.4999C4.60113 166.99 1.99571 164.178 0.99992 156.5ZM154.5 153.5C153.277 145.036 151.036 141.346 144.5 136.5C178.5 117.5 227.5 134 239.5 153.5H154.5Z" fill="#353535"/>
</svg>