<svg width="214" height="207" viewBox="0 0 214 207" fill="none" xmlns="http://www.w3.org/2000/svg">
<path d="M150.5 32.0003C162.5 38 167.5 26 160 19.5C144.653 7.14994 124.964 0.60873 103.5 1.00054C-16.4012 -3.78965 -48.8666 186.469 101.726 206.5C120.641 206.079 142 199.501 158 188.001C169.5 181 161.5 165 148.726 174.591C134.439 184.465 118.649 190.647 101.726 189.091C-22.9999 174.591 1.50023 17.0003 103.5 17.0003C117.527 17.1715 133.266 21.9267 150.5 32.0003Z" fill="#FF6060"/>
<path d="M93.5 111C82.5 107 84.5 96.5 93.5 94.5H183.5L162.5 72.5C160 64.5 166 58.5 175 61L212 98.5C213.385 102.017 213.601 103.912 212 107L175 144C165 148 160 140 162.5 133L183.5 111H93.5Z" fill="#FF6060"/>
</svg>