<svg width="172" height="189" viewBox="0 0 172 189" fill="none" xmlns="http://www.w3.org/2000/svg">
<path d="M164.5 0.5H8.5C4.5 0.5 0.5 2 0.5 6.5V36C1 40 3.75812 42.9092 8.5 43H20.5C24.9732 41.942 25.9048 40.1142 26.5 36V27.5H68.5V162.5H59C55.1806 164.128 53.447 165.396 52.5 169.5V182.5C53.7812 186.41 55.2363 187.798 59 189H114C118.78 188.327 119.837 186.602 120.5 182.5V169.5C119.309 165.539 117.863 164.028 114 162.5H103.5V27.5H146V36C147.39 40.3611 149.041 41.8818 153.5 43H164.5C168.914 42.0338 170.225 40.2674 171.5 36V6.5C171.037 2.52547 168.031 0.521526 164.5 0.5Z" fill="#757575"/>
</svg>